<svg width="138" height="180" viewBox="0 0 138 180" fill="none" xmlns="http://www.w3.org/2000/svg">
<path fill-rule="evenodd" clip-rule="evenodd" d="M61.5955 1.62425C60.706 2.49027 59.6568 4.75102 59.2647 6.64696C57.3228 16.04 55.6045 17.0361 48.8587 12.6795C46.2151 10.9718 43.0534 9.57283 41.8337 9.56965C39.0881 9.56437 30.4752 17.9211 30.4752 20.5911C30.4752 21.6686 31.9382 24.8651 33.727 27.6948C36.8865 32.6932 36.9223 32.8962 34.9782 34.789C33.878 35.8601 30.9835 37.0466 28.5452 37.4262C22.1502 38.4222 20.7002 40.3087 20.7002 47.6323C20.7002 54.6461 22.0198 56.6002 27.4775 57.6703C37.1255 59.561 38.1486 61.2338 33.6738 67.8014C31.9197 70.3752 30.4828 73.4152 30.4795 74.5562C30.4741 77.3414 39.0338 85.6992 41.8924 85.6992C43.1447 85.6992 46.4714 84.278 49.2845 82.5407C54.2447 79.4784 54.4587 79.4414 56.3909 81.3226C57.4868 82.3895 58.7021 85.2043 59.092 87.5782C60.1152 93.8043 62.0528 95.2159 69.5752 95.2159C76.7794 95.2159 78.7865 93.9312 79.8856 88.6177C81.8276 79.2247 83.5458 78.2286 90.2917 82.5851C92.9353 84.2928 96.0969 85.6918 97.3166 85.695C100.062 85.7003 108.675 77.3435 108.675 74.6735C108.675 73.596 107.212 70.3995 105.423 67.5698C102.264 62.5714 102.228 62.3684 104.172 60.4757C105.272 59.4045 108.167 58.2181 110.605 57.8385C117 56.8424 118.45 54.956 118.45 47.6323C118.45 40.6185 117.131 38.6644 111.673 37.5943C102.025 35.7036 101.002 34.0308 105.477 27.4632C107.231 24.8895 108.668 21.8113 108.671 20.6239C108.676 17.9507 100.093 9.56542 97.3503 9.56542C96.2436 9.56542 92.9603 10.9898 90.0538 12.7313C84.9198 15.8073 84.7112 15.8422 82.7671 13.9495C81.6669 12.8783 80.4482 10.0603 80.0583 7.6864C79.6684 5.31251 78.5812 2.6235 77.6428 1.7099C75.3479 -0.524417 63.8655 -0.585748 61.5955 1.62425ZM74.5952 10.6598C76.1364 20.0465 83.6099 23.6322 91.3018 18.6761C96.4901 15.3336 96.4999 15.3326 99.6453 18.2087C102.792 21.0881 102.781 21.3852 99.3173 26.4798C94.2267 33.9684 97.9097 41.2445 107.551 42.7449C111.794 43.4058 111.934 43.557 111.934 47.5192C111.934 51.5183 111.817 51.6399 106.774 52.8728C100.385 54.4368 98.0541 56.4131 97.1657 61.0223C96.6226 63.8414 97.081 65.4952 99.3173 68.7848C102.75 73.8361 102.752 73.8456 99.7973 76.9079C96.8398 79.9712 96.5346 79.9606 91.3018 76.5885C83.6099 71.6324 76.1364 75.2181 74.5952 84.6048C73.912 88.7593 73.7806 88.8714 69.5752 88.8714C65.3698 88.8714 65.2383 88.7593 64.5552 84.6048C63.014 75.2181 55.5405 71.6324 47.8486 76.5885C42.6603 79.931 42.6505 79.9321 39.5051 77.0559C36.3587 74.1766 36.3695 73.8794 39.8331 68.7848C44.9237 61.2962 41.2407 54.0201 31.5993 52.5197C27.332 51.8546 27.2169 51.7266 27.2169 47.6323C27.2169 43.538 27.332 43.4101 31.5993 42.7449C41.2407 41.2445 44.9237 33.9684 39.8331 26.4798C36.3999 21.4286 36.3988 21.419 39.3531 18.3568C42.3105 15.2934 42.6157 15.304 47.8486 18.6761C55.5405 23.6322 63.014 20.0465 64.5552 10.6598C65.2383 6.50527 65.3698 6.39318 69.5752 6.39318C73.7806 6.39318 73.912 6.50527 74.5952 10.6598Z" fill="url(#paint0_linear_108_255)"/>
<path fill-rule="evenodd" clip-rule="evenodd" d="M23.7184 80.1957C21.6178 80.5515 19.303 82.0027 16.2167 84.8988C10.0992 90.6392 5.81952 97.4253 2.1884 107.143C0.919786 110.539 0.388525 113.044 0.0811787 117.081C-0.183899 120.564 0.211991 123.341 1.09646 124.202C1.95137 125.035 8.06073 128.403 17.4334 133.209C18.345 133.676 19.1128 134.075 19.1394 134.095C19.1661 134.115 19.0329 134.332 18.8436 134.577C18.654 134.823 18.1425 135.741 17.7067 136.619C16.9196 138.203 16.9068 138.219 15.7925 139.015C14.5775 139.884 12.0051 141.505 7.56027 144.205C4.49951 146.063 4.22891 146.321 4.03939 147.552C3.85277 148.764 4.47064 151.649 5.28425 153.365C5.68553 154.21 5.99522 154.587 7.39023 155.925C9.28418 157.742 9.57481 158.133 13.4916 164.14C16.6611 169.001 20.3235 174.396 21.7677 176.331C23.7653 179.008 24.3656 179.495 25.6645 179.491C26.658 179.489 28.0265 178.839 33.0424 175.992C35.1697 174.784 37.7127 173.355 38.6935 172.817L40.4768 171.838L41.1108 172.2C41.9142 172.659 43.2347 172.706 44.0931 172.306C44.4244 172.152 45.5862 171.118 46.9939 169.726C49.204 167.541 49.4175 167.368 50.6214 166.786C51.3251 166.446 52.2348 166.083 52.6433 165.98C54.2596 165.57 54.8141 165.017 55.23 163.401C55.3519 162.927 55.5649 162.584 55.9872 162.184C56.6928 161.514 57.0086 160.622 57.0086 159.298C57.0086 158.232 57.2773 156.765 57.6965 155.543C58.6922 152.64 61.066 149.038 63.1182 147.318C64.7196 145.975 68.5463 143.299 68.8644 143.299C68.9342 143.299 69.512 143.643 70.1484 144.063C74.7553 147.107 76.6774 149.06 78.6678 152.717C79.9224 155.023 80.6294 157.493 80.6294 159.57C80.6294 160.942 80.9106 161.713 81.6554 162.382C82.1067 162.787 82.2686 163.046 82.3393 163.477C82.4662 164.25 83.0275 165.286 83.4948 165.61C83.7076 165.757 84.2532 165.982 84.7074 166.11C85.1615 166.238 86.1469 166.641 86.8969 167.007C88.3647 167.722 88.7418 168.045 91.2967 170.768C93.3273 172.932 94.4491 173.335 96.253 172.546L97.0619 172.193L98.2732 172.857C98.9395 173.222 101.287 174.571 103.49 175.855C107.974 178.467 110.575 179.829 111.352 179.971C111.962 180.082 112.82 179.866 113.388 179.457C114.316 178.788 117.055 175.087 121.768 168.132C123.325 165.833 125.359 162.832 126.287 161.463C127.924 159.049 129.581 156.888 129.797 156.888C129.855 156.888 130.316 156.52 130.821 156.069C132.423 154.639 133.497 152.019 133.63 149.219C133.73 147.116 133.62 146.958 130.9 145.279C127.014 142.878 123.398 140.552 122.173 139.666L120.965 138.791L120.054 136.975C119.554 135.976 119.045 135.051 118.925 134.919C118.794 134.777 118.757 134.636 118.834 134.569C118.904 134.508 120.453 133.713 122.277 132.802C129.495 129.199 135.172 126.174 136.368 125.293C137.709 124.306 138.005 123.215 138 119.281C137.994 114.455 137.353 111.252 135.376 106.162C131.908 97.2332 128.112 91.1988 122.553 85.7739C119.619 82.9106 117.423 81.3773 115.448 80.8119C115.023 80.6902 114.195 80.5971 113.538 80.5971C112.566 80.5971 112.204 80.6643 111.318 81.0084C109.583 81.6826 102.126 85.4537 92.8542 90.3464C91.5627 91.0279 88.9519 92.3925 87.0526 93.3789C85.1533 94.3655 83.2081 95.3965 82.7298 95.6705C81.277 96.5028 79.8813 97.6563 78.4715 99.1904C77.5043 100.243 76.8039 100.859 75.9621 101.399C74.5152 102.328 73.7153 103.118 73.2127 104.114C72.5055 105.517 72.7318 107.712 73.9506 111.275C74.2925 112.274 74.8187 113.605 75.1201 114.232C76.3337 116.758 76.9264 117.256 78.7294 117.26C79.3178 117.261 79.7996 117.294 79.7999 117.332C79.8035 117.714 69.7354 122.981 69.0008 122.981C68.3888 122.981 61.7558 119.524 59.3201 117.936L58.1852 117.195H59.1648C60.8596 117.195 61.5946 116.76 62.4742 115.234C63.1559 114.051 64.2654 111.254 64.8352 109.282C65.2464 107.858 65.3313 107.34 65.3456 106.162C65.3618 104.855 65.3337 104.695 64.9728 104.025C64.448 103.051 63.5191 102.111 62.4125 101.434C61.9094 101.126 61.0939 100.445 60.6001 99.9195C58.8086 98.0145 57.334 96.6597 56.387 96.0486C55.5875 95.5326 50.6507 92.8417 43.4715 89.0089C42.7498 88.6236 40.5742 87.4604 38.6368 86.4242C30.5099 82.0771 27.1193 80.4135 25.9443 80.1964C25.1103 80.0422 24.6258 80.0422 23.7184 80.1957ZM25.0422 82.6566C21.4117 85.3173 17.856 88.9116 15.012 92.7956C10.8693 98.4534 7.10043 106.017 5.20082 112.486C4.16647 116.008 3.58051 119.885 3.73481 122.186C3.775 122.785 3.75138 123.25 3.6808 123.25C3.36323 123.25 2.69908 122.473 2.58802 121.972C2.08315 119.693 2.43539 114.695 3.35287 111.123C4.18982 107.863 6.69431 102.001 9.00736 97.8871C11.3367 93.744 13.7688 90.5622 17.088 87.3153C20.6941 83.7879 22.9106 82.3821 24.8926 82.3658L25.4451 82.3612L25.0422 82.6566ZM27.6485 83.3213L28.4705 83.723L28.0633 84.0102C22.3186 88.0618 16.954 94.5923 12.9052 102.463C9.58255 108.921 7.54632 114.914 6.99393 119.86C6.90911 120.619 6.86132 122.086 6.88756 123.12C6.91795 124.318 6.88522 124.996 6.79709 124.99C6.72111 124.984 6.22439 124.724 5.69312 124.412C4.73103 123.848 4.72688 123.843 4.61071 123.111C4.44468 122.065 4.6045 119.023 4.92483 117.128C6.13059 109.994 10.272 100.695 15.4224 93.5579C18.0894 89.8621 21.775 86.0297 24.751 83.8576C26.4256 82.6355 26.2945 82.6597 27.6485 83.3213ZM115.736 83.3893C118.999 84.9542 124.087 90.1895 127.536 95.5324C130.108 99.5163 133.609 107.256 134.691 111.351C135.452 114.228 135.86 118.577 135.612 121.169C135.438 122.989 135.307 123.334 134.652 123.706L134.18 123.973L134.268 122.577C134.732 115.151 129.836 102.232 123.05 92.9777C120.409 89.3765 116.866 85.6683 114.187 83.7019L113.026 82.8491L113.935 82.9055C114.594 82.9464 115.09 83.0797 115.736 83.3893ZM113.483 84.1258C115.179 85.3611 119.035 89.0985 120.603 91.0249C128.33 100.52 134.073 114.85 133.465 123.117L133.367 124.461L132.261 125.067C131.654 125.4 131.148 125.672 131.137 125.672C131.126 125.672 131.114 124.416 131.11 122.88C131.104 120.618 131.045 119.779 130.8 118.459C129.016 108.84 123.178 97.1816 116.559 90.0224C114.895 88.2218 113.135 86.5714 111.64 85.4092C110.881 84.8184 110.202 84.2834 110.133 84.2205C110.061 84.1548 110.443 83.9023 111.027 83.6297C111.588 83.3678 112.07 83.1536 112.098 83.1536C112.127 83.1536 112.75 83.591 113.483 84.1258ZM30.4488 84.7229L31.3536 85.2156L30.9548 85.4962C27.9001 87.645 23.9828 91.5212 21.2192 95.1293C16.6869 101.047 12.4693 109.461 10.5807 116.354C9.76019 119.349 9.47895 121.117 9.39248 123.824L9.31167 126.348L8.60954 125.962C7.73612 125.481 7.69634 125.339 7.68169 122.637C7.65269 117.326 9.54511 110.837 13.2913 103.404C17.2311 95.5861 22.3944 89.116 27.9497 85.0353C28.5474 84.5963 29.1508 84.2354 29.2905 84.2335C29.43 84.2316 29.9513 84.4518 30.4488 84.7229ZM111.571 86.3017C113.935 88.1674 117.005 91.4579 119.319 94.6074C123.729 100.608 127.666 108.869 129.395 115.75C130.107 118.584 130.392 120.94 130.333 123.499C130.302 124.853 130.219 125.846 130.123 126.009C130.035 126.157 129.664 126.439 129.297 126.636L128.631 126.995L128.614 124.618C128.59 121.236 128.012 118.165 126.61 113.966C125.314 110.084 122.876 104.714 120.837 101.251C117.246 95.153 112.283 89.385 107.857 86.1661C107.469 85.8837 107.151 85.6182 107.151 85.5762C107.151 85.5342 107.602 85.2814 108.152 85.0145L109.154 84.5293L109.845 85.0067C110.224 85.2692 111.001 85.8519 111.571 86.3017ZM33.8132 86.5694C33.8087 86.6167 33.2915 87.0583 32.6639 87.5509C29.3387 90.1608 26.6069 93.045 23.702 97.0125C18.4753 104.151 13.9862 114.05 12.7493 121.165C12.3914 123.223 12.218 125.414 12.3099 126.719L12.3977 127.968L11.8075 127.675C11.483 127.514 10.9771 127.234 10.6837 127.054L10.15 126.726L10.2232 124.013C10.2993 121.193 10.4264 120.28 11.147 117.371C12.5796 111.591 15.9049 104.288 19.6826 98.6271C22.9388 93.7476 26.9074 89.4456 30.8001 86.5754L32.1494 85.5807L32.9854 86.0321C33.4452 86.2803 33.8178 86.5221 33.8132 86.5694ZM106.889 86.4071C109.434 88.1988 112.497 91.1421 115.057 94.2542C122.286 103.045 127.94 116.655 127.855 125.061C127.831 127.418 127.839 127.398 126.697 127.989C126.165 128.264 125.699 128.491 125.661 128.493C125.623 128.496 125.588 127.332 125.584 125.908C125.575 123.074 125.35 121.434 124.549 118.358C123.266 113.432 120.579 107.141 117.586 102.058C116.306 99.8836 113.785 96.2762 112.18 94.3215C110.47 92.2387 107.319 89.0991 105.701 87.8646C105.093 87.401 104.58 86.9839 104.561 86.9378C104.532 86.866 105.959 86.0453 106.198 85.9962C106.243 85.9869 106.554 86.1718 106.889 86.4071ZM40.6662 90.003C43.3867 91.4759 45.7836 92.8422 45.9924 93.0389C46.4245 93.4457 46.4867 93.9847 46.1705 94.5805C46.0594 94.7897 45.1109 95.656 44.0624 96.5056C40.6802 99.247 39.8716 100.275 37.9897 104.224C35.8943 108.621 34.1486 110.375 31.673 110.568C29.9132 110.706 27.2853 109.722 24.2261 107.781C22.3672 106.601 20.5414 105.255 20.5414 105.064C20.5414 104.873 21.7253 102.833 22.9689 100.883C25.7511 96.5195 29.5332 92.0692 32.8122 89.3006C34.3483 88.0036 35.286 87.3247 35.5414 87.3247C35.6393 87.3247 37.9455 88.5299 40.6662 90.003ZM104.068 88.4173C105.571 89.5633 109.334 93.2952 110.742 95.0358C113.254 98.1409 115.234 101.063 117.075 104.38L117.765 105.625L116.982 106.209C115.166 107.564 112.393 109.241 110.816 109.937C109.145 110.675 108.127 110.931 106.875 110.928C105.359 110.924 104.433 110.535 103.305 109.43C102.25 108.396 101.424 107.067 100.116 104.3C98.3373 100.535 97.4365 99.3704 94.3318 96.8197C93.2029 95.8922 92.2065 94.9781 92.1177 94.7884C91.8679 94.2542 91.9251 93.697 92.2671 93.3329C92.5746 93.0057 102.575 87.6085 102.894 87.5972C102.946 87.5953 103.475 87.9644 104.068 88.4173ZM33.9391 89.8943C33.104 90.6416 32.4208 91.2981 32.4208 91.3531C32.4208 91.4081 32.7472 91.4642 33.146 91.4777C35.8443 91.5692 38.2285 92.4664 39.627 93.9167C40.3131 94.6281 40.9571 95.7983 41.0848 96.5654L41.1625 97.0311L41.7339 96.4847C42.0482 96.1842 42.889 95.5292 43.6022 95.0291C44.3155 94.5288 44.9638 94.0172 45.0428 93.8921C45.2544 93.5569 44.8979 93.2393 43.2778 92.3191C41.7704 91.463 35.8282 88.5357 35.5979 88.5357C35.5205 88.5357 34.7741 89.1471 33.9391 89.8943ZM100.324 89.968C97.0739 91.4769 94.2618 92.9458 93.6521 93.4529C93.2243 93.8087 93.1798 93.8996 93.3142 94.1443C93.3993 94.2991 94.0815 94.8519 94.8301 95.3724C95.5787 95.8932 96.3922 96.542 96.6378 96.8144C96.8834 97.0869 97.0986 97.2883 97.1162 97.2621C97.1337 97.2359 97.2267 96.9116 97.3228 96.5416C98.0172 93.8694 101.098 91.9933 105.001 91.8661C105.574 91.8476 106.044 91.8157 106.045 91.7954C106.047 91.7352 103.269 89.1567 103.016 88.9842C102.824 88.8534 102.355 89.0248 100.324 89.968ZM32.9043 93.7454C31.3939 94.2501 30.3266 95.9058 30.5551 97.3898C30.7729 98.8042 31.849 100.154 33.3187 100.855C34.0624 101.21 34.2822 101.25 35.4598 101.246C36.5343 101.242 36.8755 101.188 37.3431 100.949C39.0452 100.076 39.734 98.3572 39.104 96.5561C38.7766 95.6203 37.6129 94.4543 36.5347 93.9819C35.429 93.4975 33.9373 93.4003 32.9043 93.7454ZM48.6182 94.3633C49.3202 94.7563 50.6573 95.4905 51.5893 95.9948C52.5215 96.4989 53.3124 96.9564 53.3472 97.0112C53.3819 97.0659 53.0234 97.1421 52.5505 97.1804C50.5278 97.3443 49.0428 98.2208 46.284 100.879C40.6482 106.309 37.1059 112.369 36.3532 117.868C36.1836 119.108 36.2567 121.661 36.5019 123.063C36.7667 124.577 37.37 126.359 37.9627 127.376C38.4841 128.272 39.8191 129.472 40.8648 129.987C41.3999 130.25 41.7324 130.509 41.819 130.731C42.2881 131.933 41.419 135.502 39.886 138.67C39.129 140.234 38.9993 140.308 37.4581 140.069C35.5603 139.773 34.3077 139.283 30.7632 137.447C29.4337 136.759 25.7352 134.849 22.5443 133.203C19.3534 131.557 16.1131 129.884 15.3434 129.485C13.7848 128.678 13.8615 128.794 13.696 127.005C13.541 125.33 14.0181 121.834 14.8052 118.877C15.642 115.734 17.7048 110.471 19.3783 107.212C19.7316 106.523 20.0402 105.939 20.064 105.914C20.0877 105.888 20.7798 106.34 21.6019 106.917C23.494 108.245 25.6392 109.516 27.2631 110.272C31.3162 112.158 33.7046 112.068 35.876 109.948C36.8657 108.981 37.5182 107.901 39.0478 104.697C40.9307 100.752 41.6926 99.771 44.8738 97.1927C45.9318 96.3352 46.8882 95.4625 46.9993 95.2532C47.1102 95.0441 47.2011 94.5976 47.2011 94.2609C47.2011 93.9241 47.2327 93.6487 47.2714 93.6487C47.31 93.6487 47.9161 93.9703 48.6182 94.3633ZM91.4147 95.6426C91.5227 95.8142 92.4741 96.6584 93.5288 97.5184C96.4718 99.918 97.5108 101.291 99.1532 104.951C101.136 109.369 102.353 110.938 104.381 111.688C105.251 112.01 106.894 112.033 108.051 111.74C110.209 111.192 113.68 109.418 116.703 107.317L118.133 106.323L118.801 107.689C121.24 112.668 123.236 118.457 123.934 122.577C124.201 124.152 124.338 127.344 124.185 128.428L124.072 129.232L123.105 129.749C122.573 130.033 120.46 131.116 118.409 132.157C114.928 133.922 114.618 134.053 113.764 134.113C113.139 134.157 112.59 134.105 112.037 133.95C111.299 133.742 111.095 133.592 109.776 132.274C108.978 131.478 108.11 130.718 107.848 130.586C107.163 130.242 105.632 130.28 103.629 130.693C101.221 131.189 96.1003 131.52 96.1003 131.18C96.1003 130.916 96.3842 130.516 96.5709 130.516C96.9066 130.516 98.7945 129.224 99.3008 128.648C100.351 127.453 101.157 125.482 101.562 123.121C101.879 121.274 101.787 117.915 101.374 116.254C100.418 112.408 98.2244 108.259 95.1846 104.547C93.7833 102.836 90.0855 99.2294 89.0309 98.5451C87.9652 97.8537 86.839 97.4409 85.6986 97.324C85.2026 97.2731 84.9462 97.194 85.026 97.1162C85.0969 97.0472 86.4832 96.2842 88.1067 95.4206L91.0585 93.8505L91.1384 94.5906C91.1825 94.9976 91.3068 95.4709 91.4147 95.6426ZM102.8 93.9718C101.83 94.2043 101.179 94.5327 100.453 95.1558C98.679 96.6767 98.4171 98.935 99.84 100.439C100.626 101.269 101.571 101.64 102.896 101.637C103.842 101.635 104.075 101.58 104.992 101.138C106.355 100.482 107.183 99.6001 107.564 98.3981C107.898 97.3446 107.901 97.2551 107.625 96.3515C107.073 94.5412 104.898 93.4684 102.8 93.9718ZM26.4963 97.8401C23.9832 101.16 21.8078 104.706 22.1491 104.927C22.2265 104.977 22.9996 105.48 23.8673 106.045C25.8624 107.344 27.6161 108.321 28.9558 108.88C29.89 109.271 30.1458 109.318 31.3158 109.321C32.423 109.324 32.7325 109.274 33.2965 109.004C34.3669 108.49 35.2552 107.22 37.0107 103.691C37.4243 102.86 37.4848 102.653 37.2927 102.729C36.827 102.912 34.1602 102.969 33.3878 102.813C31.71 102.472 30.4528 101.623 29.4952 100.185C28.9287 99.3345 28.3495 97.7453 28.1966 96.6222C28.1452 96.2449 28.0645 95.938 28.0173 95.9401C27.9702 95.9424 27.2856 96.7974 26.4963 97.8401ZM110.028 97.3825C109.376 100.417 107.916 102.254 105.562 103.005C104.919 103.21 104.379 103.266 103.145 103.256C102.271 103.248 101.386 103.174 101.177 103.091C100.906 102.983 100.797 102.982 100.797 103.086C100.797 103.319 102.819 107.187 103.288 107.851C104.213 109.16 105.085 109.673 106.548 109.766C107.314 109.814 107.741 109.763 108.466 109.535C110.026 109.044 112.491 107.738 115.119 106.011C115.994 105.435 116.13 105.295 116.053 105.044C115.882 104.478 114.701 102.449 113.574 100.78C112.551 99.266 110.387 96.3397 110.291 96.3397C110.27 96.3397 110.152 96.8089 110.028 97.3825ZM55.0699 98.1501C56.1581 98.6925 56.7326 99.181 58.2541 100.857C59.2194 101.921 59.9565 102.581 60.8285 103.165C62.2572 104.12 62.5778 104.429 62.8871 105.151C63.362 106.258 62.6371 109.208 60.9573 113.005C60.2014 114.713 60.0246 114.908 59.2291 114.908H58.5676L59.2237 113.633C60.0017 112.122 61.0526 109.076 61.3059 107.597C61.5425 106.217 61.4481 106.061 59.7429 105.024C58.1431 104.051 57.9071 103.845 56.8454 102.492C55.3383 100.573 54.5401 99.9875 53.265 99.8676C52.4846 99.7941 51.6171 100.138 50.8266 100.833C49.7278 101.8 48.1803 104.341 47.2874 106.645C46.7514 108.028 46.2991 108.541 44.1163 110.243C40.9665 112.698 40.2607 113.587 39.283 116.333C38.4729 118.608 37.8199 122.024 37.8064 124.058C37.7981 125.306 37.639 125.107 37.3199 123.448C37.0232 121.906 37.0257 119.145 37.3254 117.452C38.3313 111.771 41.495 106.454 47.0134 101.169C50.0113 98.2982 51.1958 97.6401 53.2099 97.7264C54.0847 97.764 54.4723 97.8522 55.0699 98.1501ZM86.8939 98.1344C88.1922 98.5935 89.2986 99.4322 91.4729 101.605C94.7821 104.913 96.6522 107.393 98.369 110.753C100.171 114.278 100.935 117.216 100.935 120.616C100.935 122.367 100.754 123.821 100.398 124.932C100.281 125.295 100.267 125.26 100.256 124.592C100.25 124.183 100.149 123.097 100.032 122.179C99.5081 118.055 98.4189 114.812 96.98 113.091C96.4022 112.4 95.8002 111.88 93.0273 109.678C91.8634 108.754 91.4084 108.127 90.8138 106.627C89.5938 103.55 88.2302 101.504 86.7073 100.465C86.1651 100.095 85.971 100.041 85.1878 100.04C84.0764 100.04 83.288 100.445 82.3744 101.488C82.0346 101.876 81.3603 102.647 80.876 103.202C80.1941 103.983 79.7003 104.384 78.6893 104.977C76.621 106.191 76.548 106.343 77.0287 108.449C77.4965 110.5 78.3744 112.811 79.4944 114.942C79.5642 115.075 78.3987 115.068 78.1824 114.934C78.0899 114.877 77.762 114.306 77.4534 113.665C76.2003 111.06 75.2187 107.831 75.19 106.219C75.1748 105.359 75.2126 105.216 75.5832 104.739C76.065 104.119 76.247 103.97 77.6182 103.077C78.1868 102.707 78.919 102.114 79.2457 101.76C80.5509 100.346 81.8342 99.1145 82.4015 98.7328C83.7942 97.7959 85.35 97.5885 86.8939 98.1344ZM51.5421 116.049C56.8058 119.629 58.5144 120.62 64.1915 123.388C73.8638 128.104 83.5234 131.62 89.4699 132.588C90.5974 132.772 90.8258 132.854 91.0923 133.173C91.5091 133.671 91.4836 134.12 90.9986 134.832C89.8712 136.488 86.7865 137.783 84.9059 137.39C83.6718 137.132 75.4236 132.928 58.8043 124.088C51.5933 120.253 41.9484 115.033 41.697 114.831C41.5972 114.75 42.5078 113.604 43.1486 113.003C43.5161 112.659 44.1163 112.194 44.4824 111.971L45.1479 111.566L47.176 113.013C48.2914 113.808 50.2562 115.175 51.5421 116.049ZM94.0757 112.507C94.9515 113.148 96.3622 114.665 96.3711 114.975C96.3755 115.132 96.5023 115.059 91.9563 117.525C87.5205 119.931 82.6934 122.497 78.7084 124.568L75.6132 126.176L74.219 125.571C73.4523 125.239 72.5468 124.849 72.2068 124.706L71.5887 124.445L74.0716 123.199C75.4372 122.514 78.0152 121.106 79.8006 120.069C81.586 119.032 83.7305 117.802 84.5662 117.335C86.3902 116.316 90.8427 113.457 92.0945 112.501C92.5883 112.124 93.0234 111.816 93.0614 111.816C93.0994 111.816 93.5558 112.127 94.0757 112.507ZM43.9623 120.041C45.8576 121.052 48.8069 122.619 50.5163 123.524C52.2257 124.429 53.9351 125.335 54.315 125.538C54.6948 125.74 56.8083 126.861 59.0115 128.029C69.0628 133.358 74.9199 136.604 77.0379 138.021C82.0507 141.374 84.9918 145.24 86.4788 150.43C86.8359 151.676 87.1041 153.474 87.3322 156.148C87.5663 158.892 87.7435 159.848 88.018 159.848C88.113 159.848 88.2707 159.561 88.3683 159.209C88.466 158.858 88.606 158.495 88.6795 158.402C88.9101 158.112 89.6437 158.218 90.575 158.677C91.5038 159.135 94.3398 160.823 94.7377 161.154C95.315 161.635 95.1159 162.782 94.0754 164.965L93.423 166.334L93.7602 166.582C93.9457 166.719 95.5582 167.569 97.3435 168.472C105.955 172.828 106.461 173.11 106.46 173.546C106.459 173.672 106.314 173.951 106.137 174.166L105.816 174.558L102.995 172.899C97.5161 169.676 96.7396 169.393 95.6268 170.213C95.3283 170.433 94.9367 170.613 94.7566 170.613C94.3988 170.613 93.5706 169.852 91.4973 167.619C90.8274 166.897 90.0098 166.126 89.6806 165.906C88.7574 165.287 86.4662 164.188 85.7022 163.997C84.8955 163.796 84.6672 163.517 84.5582 162.598C84.4296 161.515 84.3717 161.351 84.0895 161.263C83.9416 161.218 83.6309 161.008 83.3991 160.797C82.9973 160.431 82.9777 160.363 82.9777 159.338C82.9777 158.1 82.6937 156.504 82.1962 154.947C81.4109 152.49 79.2302 148.787 77.4624 146.907C75.9083 145.255 71.955 142.484 67.0923 139.637C61.3847 136.296 48.7735 129.605 42.4216 126.547C40.9705 125.849 39.7032 125.183 39.6056 125.069C39.4721 124.912 39.4522 124.535 39.5255 123.551C39.6248 122.216 39.9222 120.035 40.1538 118.945C40.2245 118.612 40.285 118.289 40.2884 118.227C40.2964 118.078 40.0589 117.961 43.9623 120.041ZM97.948 119.487C98.1824 120.636 98.3928 122.259 98.5251 123.939L98.6163 125.098L98.1526 125.431C97.5346 125.875 96.6449 126.338 91.7428 128.763L87.5923 130.816L83.2148 129.421C80.8072 128.654 78.8367 127.997 78.836 127.96C78.8352 127.923 80.0295 127.287 81.49 126.547C86.7806 123.866 97.6858 118.426 97.714 118.453C97.7299 118.469 97.8352 118.934 97.948 119.487ZM15.5021 120.727C14.9517 122.533 14.8156 123.574 14.8121 126.009L14.8088 128.43L17.5024 129.823C22.0699 132.185 31.9649 137.011 34.1475 137.941C37.0011 139.158 37.9716 139.465 38.3458 139.27C38.9417 138.959 40.0081 136.406 40.5689 133.947L40.8452 132.736L40.4429 132.4C40.0368 132.06 37.9467 130.933 34.1475 129.004C31.651 127.737 15.8776 120.021 15.7836 120.021C15.7472 120.021 15.6205 120.339 15.5021 120.727ZM121.102 121.049C120.533 121.315 119.383 121.85 118.547 122.238C110.752 125.857 103.809 129.254 103.009 129.842C102.674 130.088 102.684 130.089 103.632 129.884C104.17 129.768 105.327 129.67 106.253 129.661C108.281 129.643 108.641 129.792 110.018 131.219C110.531 131.75 111.169 132.408 111.437 132.681C112.038 133.295 112.822 133.546 113.733 133.414C114.68 133.277 123.127 129.089 123.233 128.704C123.45 127.918 123.237 124.212 122.885 122.645C122.668 121.68 122.309 120.559 122.217 120.562C122.174 120.564 121.672 120.783 121.102 121.049ZM41.255 120.974C41.0959 121.264 40.7506 123.744 40.8565 123.836C40.8892 123.865 43.4646 125.135 46.5795 126.66C56.1233 131.331 65.3411 136.177 71.4819 139.754C74.9871 141.795 76.2195 142.58 77.8254 143.793C80.4576 145.781 82.401 148.784 84.2974 153.794C85.1935 156.161 85.346 156.407 85.6184 155.929C85.7453 155.705 85.7978 155.026 85.7938 153.659C85.7888 151.937 85.7443 151.566 85.4149 150.497C84.168 146.452 80.8257 142.089 77.1346 139.688C73.4951 137.321 66.2673 133.339 54.8675 127.423C51.9805 125.924 49.1833 124.472 48.6515 124.195C46.0679 122.85 41.704 120.694 41.5653 120.694C41.4795 120.694 41.3398 120.82 41.255 120.974ZM91.1275 123.464C85.4449 126.276 82.6843 127.674 82.5224 127.819C82.4619 127.874 83.2644 128.208 84.3058 128.563L86.1995 129.208L87.2476 128.695C87.8241 128.414 90.248 127.291 92.6341 126.2C95.0203 125.11 97.0157 124.136 97.0685 124.037C97.1926 123.803 97.0008 121.815 96.8079 121.333C96.7226 121.12 96.5555 120.964 96.4146 120.966C96.2798 120.967 93.9006 122.091 91.1275 123.464ZM52.9955 133.569C54.6328 134.434 56.1567 135.249 56.3819 135.381L56.7912 135.621L55.1387 136.384C53.1081 137.322 52.1097 137.456 50.5637 136.997C48.4971 136.384 46.5104 134.774 46.5104 133.712C46.5104 133.055 46.9754 132.564 47.696 132.458C48.04 132.408 48.5822 132.288 48.9008 132.191C49.2195 132.094 49.6013 132.01 49.7494 132.005C49.8973 132 51.3581 132.704 52.9955 133.569ZM107.607 132.247C107.82 132.383 108.308 132.901 108.691 133.397C109.473 134.408 110.424 135.088 111.646 135.51C112.304 135.737 112.844 135.801 114.334 135.825C116.909 135.866 116.875 135.845 117.996 138.116C119.023 140.198 119.274 140.471 121.645 142.109C122.524 142.716 123.438 143.351 123.676 143.519C124.469 144.082 125.52 147.167 125.817 149.81C126.283 153.954 124.475 158.492 121.409 160.866C119.791 162.12 117.117 163.139 114.566 163.474C113.125 163.663 110.104 163.656 107.994 163.459L106.281 163.299L105.956 163.667C105.778 163.869 105.632 164.082 105.632 164.14C105.632 164.198 106.264 164.512 107.036 164.837C107.809 165.162 108.897 165.688 109.454 166.005C110.27 166.471 110.466 166.646 110.466 166.909C110.466 167.692 108.473 170.73 107.748 171.052C107.449 171.184 107.159 171.079 105.288 170.162C102.55 168.82 99.5524 167.069 98.7593 166.35C97.8887 165.56 97.9251 165.416 99.5593 163.173C99.9116 162.69 99.9949 162.477 99.8929 162.319C99.8182 162.204 98.9498 161.659 97.9632 161.108C93.0003 158.34 91.3148 156.749 89.4297 153.054C88.099 150.445 87.6015 148.259 87.7149 145.519C87.9108 140.79 90.3522 137.101 94.6962 134.967C96.6257 134.019 97.6465 133.725 101.971 132.867C102.579 132.747 103.76 132.505 104.596 132.331C106.464 131.941 107.103 131.923 107.607 132.247ZM46.4697 136.977C50.6141 140.922 51.2559 147.498 48.0585 153.255C46.1996 156.603 44.4836 158.148 39.7856 160.707C38.2277 161.556 37.7283 161.892 37.6944 162.117C37.6658 162.306 37.8951 162.738 38.332 163.317C39.5681 164.955 39.6335 165.358 38.7791 166.07C37.38 167.237 30.3709 170.858 29.8335 170.691C29.2449 170.509 27.3779 167.778 27.103 166.697C27.0306 166.412 27.0968 166.279 27.4577 165.983C27.9044 165.617 30.1324 164.532 31.3503 164.088C31.7112 163.956 32.0064 163.81 32.0064 163.762C32.0064 163.715 31.8305 163.488 31.6152 163.259C31.2319 162.85 31.2094 162.844 30.4756 162.974C30.064 163.046 28.3286 163.109 26.6192 163.114C23.9879 163.121 23.2993 163.079 22.1299 162.843C17.5592 161.92 14.5921 159.695 12.9286 155.943C11.5406 152.812 11.4797 149.308 12.7487 145.587C13.4982 143.389 13.5964 143.265 15.6654 141.886C18.6391 139.904 18.7634 139.777 19.7935 137.696C20.4958 136.276 20.7823 135.833 21.1322 135.625C21.3771 135.48 21.6724 135.361 21.7884 135.36C21.9831 135.36 25.1554 136.631 25.6987 136.927C25.891 137.032 25.7258 137.142 24.8344 137.5C22.4015 138.479 20.4219 139.8 18.522 141.713C16.1062 144.145 14.886 146.868 14.8802 149.84C14.8773 151.323 15.0301 152.166 15.5183 153.36C16.0899 154.758 16.859 155.834 18.1073 156.981C20.7849 159.443 24.3217 160.656 28.8201 160.656C34.258 160.656 39.2685 158.822 42.8483 155.521C44.3738 154.115 45.2577 152.968 46.0987 151.304C46.9515 149.617 47.2406 148.463 47.2442 146.73C47.2486 144.651 46.7178 143.03 45.4863 141.364C44.8198 140.462 43.8057 139.39 43.0687 138.807L42.5968 138.434L43.0563 137.334C43.3089 136.73 43.6297 135.973 43.7689 135.654L44.0222 135.072L44.8175 135.617C45.2548 135.916 45.9982 136.528 46.4697 136.977ZM102.454 136.386C97.2377 137.033 93.3236 139.32 91.5428 142.759C90.7854 144.223 90.5442 145.24 90.5377 146.999C90.5305 148.964 90.7445 149.845 91.681 151.708C92.5031 153.343 93.3734 154.482 94.8512 155.857C100.324 160.95 109.773 162.628 116.223 159.652C119.526 158.129 121.508 156.039 122.484 153.054C122.884 151.828 122.925 149.333 122.567 148.008C122.243 146.808 121.131 144.623 120.308 143.568C117.673 140.191 113.313 137.679 108.394 136.703C106.982 136.423 103.606 136.243 102.454 136.386ZM64.0534 139.799C65.5349 140.637 66.8547 141.393 66.9862 141.48C67.1958 141.619 67.0756 141.738 66.0205 142.435C62.8944 144.501 60.6434 146.298 59.653 147.518C57.9389 149.629 56.1813 152.669 55.4864 154.724C55.0059 156.145 54.6647 157.964 54.6625 159.116C54.66 160.325 54.5933 160.459 53.7419 160.971C53.2165 161.286 53.161 161.374 53.0762 162.028C52.9218 163.218 52.7491 163.607 52.3358 163.695C51.4569 163.884 50.9058 164.1 49.3771 164.855C47.8791 165.594 47.6509 165.76 46.4073 167.02C42.7607 170.714 42.8038 170.685 41.9819 170.011C40.7843 169.029 40.4367 169.142 34.8668 172.312L31.6665 174.133L31.3529 173.778C30.9003 173.266 30.9594 172.958 31.5971 172.508C31.9039 172.292 34.4058 171.012 37.157 169.663C42.8738 166.862 44.024 166.241 44.024 165.96C44.024 165.85 43.8754 165.474 43.6938 165.125C42.6687 163.155 42.3047 161.713 42.6883 161.143C42.9367 160.774 45.834 159.002 47.2289 158.367C48.1903 157.929 48.8257 157.881 48.9993 158.234C49.054 158.345 49.1847 158.708 49.2895 159.041C49.7028 160.353 49.975 159.467 50.3758 155.503C50.533 153.947 50.7806 152.144 50.9257 151.496C52.1044 146.235 55.2163 141.741 59.9095 138.522C60.699 137.98 60.8189 137.937 61.0747 138.097C61.2315 138.195 62.5719 138.961 64.0534 139.799ZM60.0235 140.015C58.8554 140.78 56.2395 143.42 55.0954 144.989C53.8915 146.64 52.67 149.107 52.243 150.75C51.9528 151.867 51.8999 152.371 51.9115 153.912C51.9191 154.92 51.9692 155.896 52.0231 156.081C52.1337 156.461 52.143 156.441 53.0002 153.928C53.6077 152.147 54.7853 149.802 55.8651 148.222C57.4738 145.868 60.4227 143.134 62.9829 141.623C63.5716 141.275 64.0534 140.97 64.0534 140.944C64.0534 140.869 61.1925 139.396 61.0629 139.404C60.9983 139.408 60.5306 139.684 60.0235 140.015ZM41.1232 145.919C43.0293 146.34 45.493 147.435 45.8684 148.029C46.196 148.547 44.9513 151.375 43.6961 152.964C40.0429 157.589 32.6449 160.325 26.343 159.381C24.0965 159.045 22.152 158.399 20.7016 157.507C20.1587 157.174 20.1271 157.119 20.129 156.517C20.1333 155.176 20.7842 153.387 21.708 152.179C22.8533 150.681 25.1702 148.857 27.1914 147.864C29.0699 146.94 31.1974 146.268 33.595 145.84C35.3766 145.523 39.521 145.566 41.1232 145.919ZM102.965 146.063C106.472 146.51 109.582 147.594 112.325 149.326C112.86 149.664 113.922 150.55 114.685 151.295C115.843 152.426 116.167 152.839 116.643 153.794C117.291 155.093 117.555 156.119 117.488 157.078C117.442 157.731 117.434 157.742 116.613 158.186C111.307 161.06 103.455 160.409 97.6875 156.618C94.8578 154.758 92.6777 151.954 91.967 149.26L91.7117 148.292L92.2138 147.954C92.898 147.494 94.6102 146.743 95.6158 146.463C97.6912 145.884 100.407 145.737 102.965 146.063Z" fill="#030C50"/>
<path d="M80.8696 48.1554C80.8696 54.0732 75.9299 58.9174 69.7778 58.9174C63.6257 58.9174 58.686 54.0732 58.686 48.1554C58.686 42.2376 63.6257 37.3934 69.7778 37.3934C75.9299 37.3934 80.8696 42.2376 80.8696 48.1554Z" stroke="#030C50" stroke-width="2"/>
<path d="M88.4307 48.1549C88.4307 58.1142 80.1188 66.2582 69.7777 66.2582C59.4366 66.2582 51.1248 58.1142 51.1248 48.1549C51.1248 38.1956 59.4366 30.0516 69.7777 30.0516C80.1188 30.0516 88.4307 38.1956 88.4307 48.1549Z" stroke="#030C50" stroke-width="3"/>
<defs>
<linearGradient id="paint0_linear_108_255" x1="184" y1="-1.13348" x2="281.75" y2="-1.13348" gradientUnits="userSpaceOnUse">
<stop stop-color="#030C5C"/>
<stop offset="1" stop-color="#787879" stop-opacity="0.8"/>
</linearGradient>
</defs>
</svg>
