<svg width="35" height="46" viewBox="0 0 35 46" fill="none" xmlns="http://www.w3.org/2000/svg">
<path fill-rule="evenodd" clip-rule="evenodd" d="M15.3988 0.415085C15.1765 0.636402 14.9142 1.21415 14.8162 1.69867C14.3307 4.0991 13.9011 4.35366 12.2147 3.24032C11.5538 2.8039 10.7633 2.44639 10.4584 2.44558C9.772 2.44423 7.61879 4.57984 7.61879 5.26216C7.61879 5.53752 7.98454 6.35443 8.43174 7.07756C9.22161 8.35492 9.23057 8.40681 8.74454 8.89051C8.46948 9.16425 7.74586 9.46745 7.13629 9.56446C5.53754 9.81902 5.17505 10.3011 5.17505 12.1727C5.17505 13.9651 5.50495 14.4645 6.86938 14.738C9.28135 15.2211 9.53713 15.6486 8.41844 17.327C7.97992 17.9848 7.62069 18.7617 7.61988 19.0532C7.61852 19.765 9.75842 21.9009 10.4731 21.9009C10.7861 21.9009 11.6178 21.5377 12.3211 21.0937C13.5612 20.3112 13.6146 20.3017 14.0977 20.7824C14.3717 21.0551 14.6755 21.7744 14.773 22.3811C15.0288 23.9722 15.5132 24.333 17.3938 24.333C19.1948 24.333 19.6966 24.0046 19.9714 22.6467C20.4568 20.2463 20.8864 19.9917 22.5729 21.1051C23.2338 21.5415 24.0242 21.899 24.3291 21.8998C25.0155 21.9012 27.1687 19.7656 27.1687 19.0832C27.1687 18.8079 26.803 17.991 26.3558 17.2678C25.5659 15.9905 25.5569 15.9386 26.043 15.4549C26.318 15.1811 27.0416 14.878 27.6512 14.7809C29.25 14.5264 29.6125 14.0443 29.6125 12.1727C29.6125 10.3803 29.2826 9.8809 27.9181 9.60743C25.5062 9.12426 25.2504 8.69676 26.3691 7.01838C26.8076 6.36064 27.1668 5.57401 27.1676 5.27054C27.169 4.5874 25.0231 2.4445 24.3375 2.4445C24.0608 2.4445 23.24 2.80849 22.5134 3.25356C21.2299 4.03965 21.1778 4.04857 20.6917 3.56486C20.4167 3.29112 20.112 2.57096 20.0145 1.9643C19.9171 1.35764 19.6453 0.670451 19.4107 0.436974C18.8369 -0.134018 15.9663 -0.149691 15.3988 0.415085ZM18.6488 2.72418C19.034 5.123 20.9024 6.03934 22.8254 4.77278C24.1225 3.91859 24.1249 3.91832 24.9112 4.65334C25.6979 5.38917 25.6951 5.46511 24.8292 6.76706C23.5566 8.68082 24.4773 10.5403 26.8877 10.9237C27.9485 11.0926 27.9833 11.1312 27.9833 12.1438C27.9833 13.1658 27.9542 13.1969 26.6935 13.5119C25.0962 13.9116 24.5135 14.4167 24.2913 15.5946C24.1556 16.315 24.2702 16.7377 24.8292 17.5783C25.6875 18.8692 25.6878 18.8716 24.9493 19.6542C24.2099 20.4371 24.1336 20.4344 22.8254 19.5726C20.9024 18.3061 19.034 19.2224 18.6488 21.6212C18.478 22.6829 18.4451 22.7116 17.3938 22.7116C16.3424 22.7116 16.3095 22.6829 16.1388 21.6212C15.7535 19.2224 13.8851 18.3061 11.9621 19.5726C10.665 20.4268 10.6626 20.4271 9.87626 19.6921C9.08965 18.9562 9.09237 18.8803 9.95826 17.5783C11.2309 15.6646 10.3102 13.8051 7.89982 13.4217C6.83299 13.2517 6.80421 13.219 6.80421 12.1727C6.80421 11.1264 6.83299 11.0937 7.89982 10.9237C10.3102 10.5403 11.2309 8.68082 9.95826 6.76706C9.09997 5.47618 9.0997 5.47375 9.83825 4.69117C10.5776 3.90832 10.6539 3.91102 11.9621 4.77278C13.8851 6.03934 15.7535 5.123 16.1388 2.72418C16.3095 1.66246 16.3424 1.63381 17.3938 1.63381C18.4451 1.63381 18.478 1.66246 18.6488 2.72418Z" fill="url(#paint0_linear_161_48)"/>
<path fill-rule="evenodd" clip-rule="evenodd" d="M5.92959 20.4945C5.40444 20.5854 4.82573 20.9563 4.05416 21.6964C2.52478 23.1634 1.45487 24.8976 0.547099 27.3811C0.229946 28.2488 0.097131 28.889 0.0202946 29.9208C-0.0459747 30.8109 0.0529976 31.5205 0.274114 31.7407C0.48784 31.9535 2.01518 32.8142 4.35832 34.0423C4.58624 34.1617 4.77818 34.2636 4.78484 34.2687C4.79151 34.2738 4.75822 34.3293 4.71087 34.392C4.66349 34.4547 4.53562 34.6895 4.42667 34.9137C4.2299 35.3186 4.22668 35.3227 3.9481 35.5262C3.64435 35.7481 3.00127 36.1625 1.89006 36.8523C1.12487 37.3274 1.05722 37.3931 1.00984 37.7077C0.96319 38.0175 1.11766 38.7548 1.32106 39.1932C1.42138 39.4093 1.4988 39.5056 1.84755 39.8475C2.32104 40.3118 2.39369 40.4118 3.37288 41.947C4.16525 43.1892 5.08086 44.5679 5.44191 45.0624C5.94129 45.7464 6.09137 45.8709 6.41609 45.87C6.66449 45.8694 7.00661 45.7034 8.26058 44.9756C8.79239 44.667 9.42815 44.3019 9.67333 44.1642L10.1192 43.9141L10.2777 44.0067C10.4785 44.124 10.8086 44.1361 11.0232 44.0338C11.106 43.9943 11.3965 43.7303 11.7484 43.3745C12.301 42.8159 12.3543 42.7717 12.6553 42.6231C12.8312 42.5363 13.0587 42.4436 13.1608 42.4171C13.5648 42.3123 13.7035 42.171 13.8074 41.758C13.8379 41.6369 13.8912 41.5494 13.9968 41.447C14.1732 41.2758 14.2521 41.0478 14.2521 40.7094C14.2521 40.4371 14.3193 40.0623 14.4241 39.7499C14.673 39.0079 15.2664 38.0876 15.7795 37.6479C16.1798 37.3048 17.1365 36.6208 17.216 36.6208C17.2335 36.6208 17.3779 36.7087 17.537 36.8161C18.6887 37.594 19.1693 38.093 19.6669 39.0278C19.9805 39.617 20.1573 40.2482 20.1573 40.7791C20.1573 41.1297 20.2276 41.3267 20.4138 41.4976C20.5266 41.6011 20.5671 41.6674 20.5848 41.7775C20.6165 41.9749 20.7568 42.2397 20.8736 42.3225C20.9268 42.3602 21.0632 42.4178 21.1768 42.4504C21.2903 42.483 21.5366 42.5861 21.7241 42.6796C22.0911 42.8624 22.1854 42.9448 22.8241 43.6407C23.3317 44.1939 23.6122 44.2968 24.0632 44.0952L24.2654 44.0049L24.5682 44.1746C24.7348 44.2679 25.3217 44.6126 25.8725 44.9407C26.9934 45.6082 27.6437 45.9562 27.838 45.9926C27.9905 46.0211 28.205 45.9657 28.347 45.8611C28.579 45.6903 29.2637 44.7444 30.4418 42.9671C30.8312 42.3796 31.3397 41.6127 31.5717 41.2628C31.9808 40.6459 32.3952 40.0937 32.4492 40.0937C32.4637 40.0937 32.5789 39.9995 32.7051 39.8843C33.1056 39.519 33.3742 38.8492 33.4074 38.1337C33.4323 37.5964 33.4049 37.556 32.725 37.1268C31.7535 36.5134 30.8493 35.919 30.5432 35.6925L30.241 35.4688L30.0135 35.0046C29.8883 34.7493 29.7612 34.513 29.7311 34.4794C29.6983 34.4429 29.6891 34.407 29.7083 34.3899C29.7258 34.3742 30.1132 34.171 30.569 33.9384C32.3736 33.0176 33.793 32.2444 34.092 32.0194C34.4272 31.7671 34.5012 31.4883 34.4999 30.4829C34.4983 29.2498 34.3381 28.4311 33.8438 27.1303C32.9768 24.8485 32.028 23.3064 30.6381 21.92C29.9046 21.1883 29.3557 20.7964 28.862 20.6519C28.7558 20.6209 28.5486 20.5971 28.3843 20.5971C28.1415 20.5971 28.051 20.6142 27.8294 20.7022C27.3955 20.8745 25.5314 21.8382 23.2135 23.0885C22.8906 23.2627 22.2379 23.6114 21.7631 23.8635C21.2882 24.1156 20.8019 24.3791 20.6824 24.4491C20.3192 24.6619 19.9702 24.9566 19.6178 25.3487C19.376 25.6176 19.2009 25.7752 18.9905 25.9132C18.6287 26.1504 18.4287 26.3523 18.3031 26.607C18.1263 26.9656 18.1829 27.5265 18.4876 28.437C18.5731 28.6923 18.7046 29.0324 18.78 29.1927C19.0834 29.8382 19.2315 29.9653 19.6823 29.9665C19.8294 29.9668 19.9498 29.9751 19.9499 29.9849C19.9508 30.0826 17.4338 31.4285 17.2501 31.4285C17.0971 31.4285 15.4389 30.545 14.83 30.1391L14.5462 29.95H14.7912C15.2148 29.95 15.3986 29.8386 15.6185 29.4486C15.7889 29.1464 16.0663 28.4316 16.2087 27.9275C16.3116 27.5638 16.3328 27.4314 16.3363 27.1303C16.3404 26.7964 16.3334 26.7554 16.2431 26.5842C16.1119 26.3352 15.8797 26.0949 15.6031 25.922C15.4773 25.8433 15.2734 25.6692 15.15 25.535C14.7021 25.0482 14.3335 24.7019 14.0967 24.5458C13.8968 24.4139 12.6626 23.7262 10.8678 22.7467C10.6874 22.6483 10.1435 22.351 9.65917 22.0862C7.62745 20.9753 6.77979 20.5501 6.48605 20.4947C6.27754 20.4553 6.15643 20.4553 5.92959 20.4945ZM6.26052 21.1234C5.35292 21.8033 4.464 22.7219 3.75299 23.7145C2.7173 25.1603 1.7751 27.0933 1.3002 28.7465C1.04161 29.6465 0.895125 30.6374 0.933698 31.2254C0.943748 31.3784 0.937842 31.4973 0.920196 31.4973C0.840804 31.4973 0.674768 31.2988 0.647004 31.1706C0.520785 30.5882 0.608844 29.311 0.838214 28.3981C1.04745 27.5651 1.67357 26.067 2.25183 25.0156C2.83417 23.9568 3.44219 23.1437 4.27199 22.3139C5.17352 21.4125 5.72764 21.0532 6.22312 21.0491L6.36125 21.0479L6.26052 21.1234ZM6.91209 21.2932L7.1176 21.3959L7.01579 21.4693C5.57963 22.5047 4.23849 24.1736 3.22629 26.1849C2.39563 27.8355 1.88657 29.367 1.74848 30.631C1.72727 30.8249 1.71532 31.1997 1.72188 31.4639C1.72948 31.7703 1.7213 31.9434 1.69927 31.9418C1.68027 31.9404 1.55609 31.874 1.42328 31.7943C1.18275 31.6499 1.18172 31.6487 1.15267 31.4616C1.11116 31.1945 1.15112 30.4171 1.2312 29.9328C1.53264 28.1095 2.56798 25.7332 3.85559 23.9093C4.52232 22.9648 5.44374 21.9854 6.18772 21.4303C6.60637 21.118 6.5736 21.1242 6.91209 21.2932ZM28.9338 21.3106C29.7496 21.7105 31.0215 23.0484 31.8839 24.4139C32.527 25.432 33.4023 27.41 33.6728 28.4563C33.8629 29.1916 33.9648 30.303 33.9028 30.9655C33.8594 31.4305 33.8267 31.5187 33.6628 31.6137L33.5449 31.6821L33.5668 31.3253C33.6829 29.4275 32.4589 26.126 30.7624 23.761C30.1023 22.8407 29.2165 21.893 28.5467 21.3905L28.2563 21.1726L28.4836 21.187C28.6483 21.1974 28.7724 21.2315 28.9338 21.3106ZM28.3708 21.4988C28.7946 21.8145 29.7588 22.7697 30.1506 23.2619C32.0823 25.6885 33.5181 29.3505 33.3662 31.4634L33.3415 31.8068L33.0652 31.9615C32.9133 32.0466 32.7868 32.1162 32.7841 32.1162C32.7814 32.1162 32.7783 31.7952 32.7773 31.4027C32.7758 30.8246 32.7611 30.6103 32.7 30.273C32.2539 27.8146 30.7944 24.8353 29.1397 23.0057C28.7236 22.5456 28.2836 22.1238 27.91 21.8268C27.7201 21.6758 27.5505 21.5391 27.5332 21.523C27.5152 21.5063 27.6107 21.4417 27.7567 21.372C27.8969 21.3051 28.0174 21.2504 28.0245 21.2504C28.0315 21.2504 28.1874 21.3622 28.3708 21.4988ZM7.61218 21.6514L7.83838 21.7774L7.73868 21.849C6.97501 22.3982 5.99568 23.3888 5.30478 24.3108C4.17171 25.8231 3.1173 27.9735 2.64516 29.735C2.44004 30.5004 2.36973 30.9521 2.34811 31.6439L2.32791 32.2891L2.15238 32.1903C1.93402 32.0675 1.92408 32.031 1.92042 31.3407C1.91316 29.9833 2.38627 28.3252 3.32281 26.4254C4.30777 24.4276 5.59858 22.7741 6.98741 21.7313C7.13683 21.6191 7.28767 21.5269 7.32259 21.5264C7.35747 21.5259 7.48779 21.5821 7.61218 21.6514ZM27.8927 22.0549C28.4837 22.5317 29.251 23.3726 29.8297 24.1775C30.9322 25.7111 31.9164 27.8222 32.3485 29.5807C32.5265 30.3049 32.5979 30.907 32.5832 31.5608C32.5755 31.907 32.5546 32.1606 32.5306 32.2022C32.5087 32.24 32.4158 32.3122 32.3242 32.3627L32.1576 32.4543L32.1534 31.8469C32.1474 30.9826 32.0029 30.1977 31.6525 29.1247C31.3285 28.1327 30.7188 26.7602 30.2091 25.8753C29.3115 24.3169 28.0708 22.8429 26.9642 22.0203C26.8671 21.9481 26.7877 21.8802 26.7877 21.8695C26.7877 21.8588 26.9003 21.7942 27.038 21.7259L27.2884 21.6019L27.4611 21.7239C27.556 21.791 27.7503 21.94 27.8927 22.0549ZM8.45327 22.1233C8.45213 22.1354 8.32284 22.2483 8.16596 22.3741C7.33464 23.0411 6.65171 23.7782 5.92548 24.7921C4.61881 26.6165 3.49655 29.1462 3.1873 30.9643C3.09783 31.4904 3.05449 32.0503 3.07745 32.3838L3.09942 32.703L2.95185 32.6281C2.87074 32.5869 2.74428 32.5155 2.67093 32.4693L2.53749 32.3856L2.55579 31.6921C2.57482 30.9716 2.60659 30.7381 2.78675 29.9949C3.1449 28.5177 3.97621 26.6514 4.92063 25.2047C5.73468 23.9577 6.72682 22.8583 7.7 22.1249L8.03732 21.8706L8.24632 21.986C8.36128 22.0494 8.45441 22.1112 8.45327 22.1233ZM26.722 22.0818C27.3583 22.5397 28.1243 23.2919 28.764 24.0872C30.5713 26.3339 31.9848 29.8118 31.9636 31.9601C31.9576 32.5624 31.9596 32.5573 31.6741 32.7083C31.5412 32.7786 31.4246 32.8366 31.4151 32.8372C31.4056 32.8378 31.3969 32.5404 31.3958 32.1764C31.3935 31.4523 31.3373 31.0331 31.1371 30.2471C30.8164 28.9882 30.1446 27.3804 29.3965 26.0816C29.0764 25.5258 28.4462 24.604 28.0449 24.1044C27.6173 23.5721 26.8297 22.7698 26.4251 22.4543C26.2731 22.3358 26.145 22.2292 26.1403 22.2175C26.133 22.1991 26.4897 21.9894 26.5494 21.9768C26.5608 21.9744 26.6385 22.0217 26.722 22.0818ZM10.1665 23.0008C10.8466 23.3772 11.4459 23.7264 11.4981 23.7766C11.6061 23.8806 11.6216 24.0183 11.5426 24.1706C11.5148 24.2241 11.2777 24.4454 11.0156 24.6626C10.17 25.3632 9.96787 25.6258 9.49739 26.6351C8.97355 27.7588 8.53712 28.2068 7.91822 28.2563C7.47826 28.2915 6.8213 28.0401 6.0565 27.544C5.59178 27.2425 5.13532 26.8985 5.13532 26.8498C5.13532 26.8008 5.43131 26.2796 5.74221 25.7812C6.43774 24.6661 7.38326 23.5288 8.20301 22.8213C8.58706 22.4898 8.82147 22.3163 8.88532 22.3163C8.9098 22.3163 9.48634 22.6243 10.1665 23.0008ZM26.017 22.5956C26.3927 22.8884 27.3334 23.8421 27.6854 24.2869C28.3135 25.0805 28.8085 25.8271 29.2685 26.6748L29.4412 26.993L29.2454 27.1423C28.7913 27.4887 28.0981 27.9172 27.704 28.0951C27.2862 28.2837 27.0317 28.3491 26.7186 28.3482C26.3398 28.3472 26.1082 28.2479 25.8262 27.9654C25.5625 27.7012 25.356 27.3617 25.029 26.6545C24.5842 25.6924 24.359 25.3947 23.5829 24.7428C23.3006 24.5058 23.0515 24.2722 23.0293 24.2237C22.9669 24.0872 22.9812 23.9448 23.0667 23.8518C23.1436 23.7681 25.6435 22.3889 25.7235 22.386C25.7365 22.3855 25.8686 22.4798 26.017 22.5956ZM8.48473 22.973C8.27598 23.164 8.10518 23.3318 8.10518 23.3458C8.10518 23.3599 8.18678 23.3742 8.28648 23.3777C8.96105 23.401 9.55709 23.6303 9.90671 24.001C10.0782 24.1828 10.2392 24.4818 10.2712 24.6778L10.2906 24.7969L10.4334 24.6572C10.512 24.5804 10.7222 24.413 10.9005 24.2852C11.0788 24.1574 11.2409 24.0267 11.2607 23.9947C11.3136 23.909 11.2244 23.8278 10.8194 23.5927C10.4426 23.3739 8.95701 22.6258 8.89944 22.6258C8.88011 22.6258 8.69349 22.7821 8.48473 22.973ZM25.0809 22.9918C24.2684 23.3775 23.5654 23.7528 23.4129 23.8824C23.306 23.9734 23.2949 23.9966 23.3285 24.0591C23.3497 24.0987 23.5203 24.2399 23.7074 24.373C23.8946 24.5061 24.098 24.6719 24.1594 24.7415C24.2208 24.8111 24.2746 24.8626 24.279 24.8559C24.2833 24.8492 24.3066 24.7663 24.3306 24.6718C24.5042 23.9889 25.2745 23.5094 26.2502 23.4769C26.3935 23.4722 26.5109 23.464 26.511 23.4588C26.5116 23.4435 25.8171 22.7845 25.7539 22.7404C25.706 22.707 25.5887 22.7508 25.0809 22.9918ZM8.22605 23.9572C7.84846 24.0862 7.58162 24.5093 7.63874 24.8885C7.6932 25.25 7.96221 25.5948 8.32965 25.7741C8.51557 25.8649 8.57051 25.8751 8.86491 25.8741C9.13354 25.8731 9.21884 25.8593 9.33574 25.798C9.76125 25.575 9.93347 25.1358 9.77597 24.6755C9.69412 24.4363 9.40318 24.1383 9.13365 24.0176C8.85721 23.8938 8.48429 23.869 8.22605 23.9572ZM12.1545 24.1151C12.33 24.2155 12.6643 24.4031 12.8973 24.532C13.1303 24.6609 13.3281 24.7778 13.3368 24.7918C13.3454 24.8058 13.2558 24.8252 13.1376 24.835C12.6319 24.8769 12.2607 25.1009 11.571 25.7802C10.162 27.1678 9.27644 28.7165 9.08827 30.1219C9.04586 30.4387 9.06413 31.0911 9.12543 31.4496C9.19163 31.8363 9.34247 32.2916 9.49065 32.5517C9.62098 32.7805 9.95474 33.0874 10.2162 33.2188C10.3499 33.286 10.4331 33.3524 10.4547 33.4091C10.572 33.7162 10.3547 34.6282 9.97146 35.4378C9.78222 35.8375 9.74979 35.8566 9.3645 35.7953C8.89005 35.7199 8.5769 35.5945 7.69078 35.1254C7.3584 34.9494 6.43377 34.4613 5.63605 34.0407C4.83834 33.62 4.02826 33.1925 3.83584 33.0907C3.4462 32.8845 3.46536 32.914 3.42399 32.4568C3.38525 32.0287 3.50452 31.1355 3.70129 30.3798C3.9105 29.5764 4.42618 28.2316 4.84455 27.3986C4.93289 27.2227 5.01004 27.0734 5.01597 27.0669C5.02191 27.0604 5.19493 27.1757 5.40047 27.3232C5.87347 27.6626 6.40977 27.9875 6.81574 28.1806C7.82902 28.6625 8.42613 28.6395 8.96896 28.0977C9.21639 27.8507 9.37953 27.5747 9.76191 26.7558C10.2326 25.7479 10.4231 25.497 11.2184 24.8382C11.4829 24.619 11.722 24.396 11.7498 24.3425C11.7775 24.2891 11.8002 24.175 11.8002 24.0889C11.8002 24.0029 11.8081 23.9325 11.8178 23.9325C11.8274 23.9325 11.979 24.0147 12.1545 24.1151ZM22.8536 24.442C22.8806 24.4859 23.1184 24.7016 23.3821 24.9214C24.1179 25.5346 24.3776 25.8855 24.7882 26.8209C25.2839 27.95 25.5881 28.3508 26.0952 28.5426C26.3127 28.6249 26.7233 28.6308 27.0127 28.5558C27.5522 28.4158 28.4198 27.9624 29.1757 27.4254L29.533 27.1715L29.7003 27.5206C30.3099 28.793 30.8088 30.2725 30.9834 31.3254C31.0502 31.7277 31.0844 32.5435 31.0462 32.8204L31.0179 33.026L30.7762 33.158C30.6433 33.2306 30.1149 33.5076 29.6021 33.7734C28.732 34.2245 28.6544 34.258 28.4408 34.2733C28.2846 34.2846 28.1474 34.2713 28.0091 34.2316C27.8247 34.1786 27.7737 34.1401 27.4438 33.8034C27.2444 33.5999 27.0275 33.4058 26.9619 33.3721C26.7907 33.284 26.4078 33.2939 25.9071 33.3993C25.3052 33.5261 24.025 33.6107 24.025 33.5238C24.025 33.4565 24.096 33.3541 24.1426 33.3541C24.2266 33.3541 24.6985 33.024 24.8251 32.8767C25.0875 32.5714 25.2892 32.0677 25.3905 31.4643C25.4698 30.9923 25.4468 30.134 25.3435 29.7093C25.1045 28.7266 24.556 27.6663 23.7961 26.7177C23.4457 26.2804 22.5213 25.3586 22.2577 25.1838C21.9912 25.0071 21.7097 24.9016 21.4246 24.8717C21.3006 24.8587 21.2365 24.8385 21.2564 24.8186C21.2741 24.801 21.6207 24.606 22.0266 24.3853L22.7645 23.984L22.7845 24.1732C22.7955 24.2772 22.8266 24.3982 22.8536 24.442ZM25.6999 24.015C25.4575 24.0744 25.2948 24.1584 25.1131 24.3176C24.6697 24.7063 24.6042 25.2834 24.9599 25.6677C25.1565 25.88 25.3925 25.9746 25.724 25.9739C25.9603 25.9735 26.0186 25.9593 26.2479 25.8464C26.5887 25.6787 26.7956 25.4534 26.8909 25.1462C26.9744 24.877 26.9751 24.8541 26.9062 24.6232C26.7682 24.1605 26.2244 23.8864 25.6999 24.015ZM6.62405 25.0036C5.99579 25.8519 5.45192 26.7583 5.53725 26.8148C5.55659 26.8276 5.74988 26.9561 5.96681 27.1005C6.46558 27.4323 6.90401 27.682 7.23891 27.825C7.47246 27.9247 7.53642 27.9369 7.82891 27.9376C8.10573 27.9383 8.18309 27.9256 8.32409 27.8565C8.59168 27.7253 8.81377 27.4006 9.25265 26.4989C9.35604 26.2864 9.37117 26.2337 9.32313 26.253C9.20672 26.2998 8.54002 26.3144 8.34691 26.2743C7.92747 26.1873 7.61318 25.9704 7.37377 25.6029C7.23214 25.3855 7.08735 24.9794 7.04912 24.6924C7.03627 24.5959 7.0161 24.5175 7.00429 24.5181C6.99252 24.5186 6.82137 24.7371 6.62405 25.0036ZM27.507 24.8867C27.3438 25.662 26.979 26.1315 26.3905 26.3235C26.2296 26.3759 26.0947 26.3903 25.7862 26.3876C25.5678 26.3857 25.3463 26.3668 25.2941 26.3455C25.2263 26.3179 25.1991 26.3175 25.1991 26.3442C25.1991 26.4038 25.7047 27.3922 25.8219 27.5619C26.0531 27.8965 26.2713 28.0275 26.6369 28.0512C26.8284 28.0637 26.9352 28.0506 27.1164 27.9923C27.5064 27.8668 28.1226 27.5332 28.7796 27.0917C28.9985 26.9446 29.0323 26.9088 29.0133 26.8445C28.9703 26.7 28.6752 26.1814 28.3933 25.7549C28.1376 25.368 27.5967 24.6202 27.5727 24.6202C27.5674 24.6202 27.5379 24.7401 27.507 24.8867ZM13.7674 25.0828C14.0395 25.2214 14.1831 25.3463 14.5635 25.7747C14.8048 26.0465 14.9891 26.2153 15.2071 26.3643C15.5643 26.6085 15.6444 26.6875 15.7217 26.8718C15.8405 27.1548 15.6592 27.9088 15.2393 28.879C15.0503 29.3156 15.0061 29.3654 14.8072 29.3654H14.6418L14.8059 29.0397C15.0004 28.6535 15.2631 27.8751 15.3264 27.4971C15.3856 27.1443 15.362 27.1045 14.9357 26.8395C14.5357 26.5908 14.4767 26.5381 14.2113 26.1925C13.8345 25.7019 13.635 25.5524 13.3162 25.5217C13.1211 25.503 12.9042 25.5908 12.7066 25.7686C12.4319 26.0157 12.045 26.665 11.8218 27.2537C11.6878 27.6071 11.5747 27.7383 11.029 28.1731C10.2416 28.8006 10.0651 29.0279 9.82072 29.7296C9.61818 30.311 9.45495 31.1839 9.45156 31.7036C9.44949 32.0226 9.40971 31.9717 9.32994 31.5478C9.25576 31.1537 9.25638 30.4482 9.33132 30.0155C9.58279 28.5637 10.3737 27.2049 11.7533 25.8543C12.5028 25.1207 12.7989 24.9525 13.3024 24.9746C13.5211 24.9842 13.618 25.0067 13.7674 25.0828ZM21.7234 25.0788C22.048 25.1961 22.3246 25.4105 22.8681 25.9658C23.6954 26.8111 24.163 27.445 24.5922 28.3035C25.0426 29.2044 25.2337 29.9552 25.2337 30.8242C25.2337 31.2715 25.1884 31.6433 25.0993 31.9271C25.0702 32.0198 25.0666 32.0109 25.064 31.8401C25.0623 31.7356 25.0371 31.4581 25.008 31.2236C24.8769 30.1696 24.6046 29.3408 24.2449 28.9011C24.1005 28.7246 23.95 28.5917 23.2567 28.0289C22.9658 27.7926 22.852 27.6324 22.7034 27.2491C22.3984 26.4628 22.0575 25.9398 21.6767 25.6744C21.5412 25.5798 21.4927 25.566 21.2969 25.5659C21.019 25.5658 20.8219 25.6694 20.5935 25.9358C20.5086 26.0349 20.34 26.232 20.2189 26.3738C20.0485 26.5735 19.925 26.676 19.6723 26.8275C19.1552 27.1376 19.1369 27.1766 19.2571 27.7149C19.3741 28.2388 19.5935 28.8295 19.8735 29.374C19.891 29.408 19.5996 29.4064 19.5455 29.3722C19.5224 29.3576 19.4404 29.2115 19.3633 29.0476C19.05 28.382 18.8046 27.5567 18.7974 27.1449C18.7936 26.925 18.8031 26.8886 18.8957 26.7667C19.0162 26.6082 19.0617 26.5702 19.4045 26.3419C19.5466 26.2473 19.7297 26.0958 19.8114 26.0053C20.1377 25.6439 20.4585 25.3293 20.6003 25.2317C20.9485 24.9923 21.3374 24.9393 21.7234 25.0788ZM12.8855 29.657C14.2014 30.5718 14.6285 30.8251 16.0478 31.5325C18.4659 32.7377 20.8808 33.6362 22.3674 33.8836C22.6493 33.9305 22.7064 33.9516 22.773 34.033C22.8772 34.1604 22.8708 34.2751 22.7496 34.4572C22.4677 34.8802 21.6966 35.2111 21.2264 35.1107C20.9179 35.0448 18.8558 33.9706 14.701 31.7115C12.8983 30.7312 10.4871 29.3974 10.4242 29.3457C10.3993 29.3251 10.6269 29.0322 10.7871 28.8786C10.879 28.7906 11.029 28.6719 11.1206 28.6149L11.2869 28.5113L11.7939 28.881C12.0728 29.0843 12.564 29.4335 12.8855 29.657ZM23.5188 28.7519C23.7378 28.9157 24.0905 29.3033 24.0927 29.3826C24.0938 29.4227 24.1255 29.404 22.989 30.0342C21.88 30.6491 20.6733 31.3049 19.677 31.8341L18.9032 32.2451L18.5547 32.0905C18.363 32.0055 18.1366 31.9059 18.0516 31.8693L17.8971 31.8026L18.5178 31.4843C18.8592 31.3092 19.5037 30.9493 19.9501 30.6843C20.3964 30.4194 20.9325 30.105 21.1415 29.9857C21.5975 29.7253 22.7106 28.9947 23.0235 28.7504C23.147 28.654 23.2558 28.5751 23.2653 28.5752C23.2748 28.5752 23.3889 28.6547 23.5188 28.7519ZM10.9905 30.6772C11.4644 30.9354 12.2017 31.3359 12.629 31.5672C13.0564 31.7986 13.4837 32.0301 13.5787 32.0819C13.6737 32.1335 14.202 32.4201 14.7528 32.7185C17.2656 34.0803 18.7299 34.9099 19.2594 35.272C20.5126 36.1289 21.2479 37.1168 21.6196 38.4432C21.7089 38.7617 21.776 39.2211 21.833 39.9046C21.8915 40.6058 21.9358 40.8502 22.0044 40.8502C22.0282 40.8502 22.0676 40.7767 22.092 40.6869C22.1164 40.597 22.1514 40.5042 22.1698 40.4805C22.2274 40.4063 22.4108 40.4336 22.6437 40.5509C22.8759 40.6679 23.5849 41.0991 23.6843 41.1838C23.8287 41.3068 23.7789 41.5998 23.5188 42.1578L23.3557 42.5077L23.44 42.5711C23.4863 42.6059 23.8895 42.8232 24.3358 43.0541C26.4887 44.1673 26.6152 44.2393 26.6148 44.3507C26.6147 44.3828 26.5785 44.4541 26.5342 44.5092L26.4538 44.6093L25.7488 44.1853C24.3789 43.3616 24.1848 43.2893 23.9066 43.4988C23.832 43.5551 23.7341 43.601 23.6891 43.601C23.5996 43.601 23.3926 43.4066 22.8742 42.8359C22.7068 42.6515 22.5024 42.4545 22.4201 42.3981C22.1893 42.24 21.6165 41.9591 21.4255 41.9104C21.2238 41.8589 21.1667 41.7876 21.1395 41.5529C21.1073 41.2761 21.0928 41.2341 21.0223 41.2118C20.9853 41.2001 20.9076 41.1464 20.8497 41.0925C20.7492 40.9991 20.7443 40.9817 20.7443 40.7198C20.7443 40.4033 20.6733 39.9954 20.549 39.5977C20.3527 38.9698 19.8075 38.0233 19.3655 37.543C18.977 37.1208 17.9887 36.4126 16.773 35.6851C15.3461 34.8313 12.1933 33.1213 10.6054 32.3399C10.2426 32.1614 9.92577 31.9914 9.90136 31.9621C9.868 31.922 9.86302 31.8258 9.88133 31.5741C9.90616 31.2329 9.98051 30.6756 10.0384 30.397C10.0561 30.3119 10.0712 30.2293 10.0721 30.2136C10.0741 30.1755 10.0147 30.1455 10.9905 30.6772ZM24.4869 30.5355C24.5455 30.8293 24.5981 31.244 24.6312 31.6733L24.654 31.9696L24.5381 32.0547C24.3836 32.1682 24.1611 32.2864 22.9356 32.906L21.898 33.4307L20.8036 33.0743C20.2017 32.8784 19.7091 32.7103 19.7089 32.7008C19.7087 32.6913 20.0073 32.5289 20.3724 32.3398C21.6951 31.6547 24.4214 30.2644 24.4284 30.2714C24.4324 30.2754 24.4587 30.3942 24.4869 30.5355ZM3.87551 30.8525C3.7379 31.3139 3.70388 31.5801 3.70302 32.2022L3.70219 32.8211L4.37559 33.1771C5.51747 33.7806 7.99118 35.0139 8.53684 35.2517C9.25023 35.5625 9.49286 35.641 9.58641 35.5912C9.73539 35.5118 10.002 34.8594 10.1422 34.231L10.2113 33.9215L10.1107 33.8355C10.0092 33.7487 9.48665 33.4607 8.53684 32.9678C7.91272 32.644 3.96938 30.672 3.94589 30.672C3.93678 30.672 3.90511 30.7533 3.87551 30.8525ZM30.2755 30.9348C30.1331 31.0028 29.8456 31.1395 29.6366 31.2387C27.6878 32.1634 25.9521 33.0316 25.7522 33.1818C25.6684 33.2447 25.671 33.245 25.9079 33.1927C26.0424 33.163 26.3317 33.1378 26.5632 33.1357C27.0702 33.1309 27.1602 33.169 27.5045 33.5337C27.6325 33.6694 27.7921 33.8376 27.859 33.9075C28.0095 34.0644 28.2055 34.1284 28.4332 34.0947C28.6699 34.0597 30.7817 32.9895 30.8082 32.8911C30.8625 32.6901 30.8092 31.7432 30.7211 31.3426C30.6669 31.0959 30.577 30.8095 30.5541 30.8104C30.5433 30.8109 30.418 30.8668 30.2755 30.9348ZM10.3137 30.9157C10.2739 30.9897 10.1876 31.6235 10.2141 31.6471C10.2223 31.6543 10.8661 31.979 11.6448 32.3686C14.0308 33.5623 16.3352 34.8009 17.8704 35.7149C18.7467 36.2366 19.0548 36.4371 19.4563 36.7471C20.1143 37.2551 20.6002 38.0225 21.0743 39.3028C21.2983 39.9077 21.3364 39.9707 21.4045 39.8484C21.4362 39.7914 21.4494 39.6179 21.4484 39.2685C21.4471 38.8284 21.436 38.7335 21.3536 38.4604C21.0419 37.4266 20.2063 36.3116 19.2836 35.6981C18.3737 35.093 16.5668 34.0756 13.7168 32.5636C12.9951 32.1806 12.2958 31.8095 12.1628 31.7387C11.5169 31.395 10.426 30.844 10.3913 30.844C10.3698 30.844 10.3349 30.8763 10.3137 30.9157ZM22.7818 31.5519C21.3611 32.2706 20.671 32.6278 20.6305 32.665C20.6154 32.6789 20.816 32.7644 21.0764 32.8551L21.5498 33.0198L21.8118 32.8889C21.9559 32.8168 22.5619 32.5299 23.1585 32.2512C23.755 31.9726 24.2538 31.7238 24.267 31.6983C24.298 31.6386 24.2501 31.1305 24.2019 31.0073C24.1806 30.9529 24.1388 30.913 24.1036 30.9134C24.0699 30.9138 23.4751 31.2011 22.7818 31.5519ZM13.2488 34.1343C13.6582 34.3553 14.0391 34.5637 14.0954 34.5974L14.1977 34.6586L13.7846 34.8537C13.277 35.0934 13.0274 35.1276 12.6409 35.0104C12.1242 34.8538 11.6276 34.4423 11.6276 34.1709C11.6276 34.0031 11.7438 33.8774 11.924 33.8505C12.01 33.8377 12.1455 33.8068 12.2252 33.7821C12.3048 33.7573 12.4003 33.7359 12.4373 33.7347C12.4743 33.7334 12.8395 33.9132 13.2488 34.1343ZM26.9017 33.7964C26.955 33.8313 27.0769 33.9636 27.1727 34.0903C27.3682 34.3488 27.6058 34.5225 27.9113 34.6304C28.0758 34.6885 28.2109 34.7047 28.5834 34.7108C29.2272 34.7214 29.2186 34.7159 29.4989 35.2963C29.7558 35.8283 29.8183 35.8983 30.4113 36.3168C30.631 36.4719 30.8594 36.6341 30.9188 36.6771C31.1173 36.821 31.3798 37.6094 31.4542 38.2848C31.5707 39.3439 31.1185 40.5035 30.3522 41.1103C29.9476 41.4308 29.2791 41.6912 28.6413 41.7767C28.2811 41.8251 27.526 41.8233 26.9984 41.7728L26.5703 41.7319L26.489 41.826C26.4444 41.8777 26.4078 41.9321 26.4078 41.947C26.4078 41.9618 26.5658 42.0419 26.759 42.125C26.9521 42.2081 27.2241 42.3425 27.3633 42.4236C27.5673 42.5425 27.6165 42.5873 27.6165 42.6544C27.6165 42.8547 27.1182 43.631 26.9368 43.7133C26.8622 43.7471 26.7897 43.7203 26.322 43.4859C25.6375 43.1428 24.888 42.6955 24.6897 42.5116C24.4721 42.3098 24.4812 42.273 24.8897 41.6999C24.9778 41.5764 24.9986 41.5218 24.9731 41.4815C24.9545 41.452 24.7373 41.3128 24.4907 41.1722C23.25 40.4647 22.8286 40.0581 22.3574 39.1137C22.0247 38.4471 21.9003 37.8884 21.9287 37.1881C21.9776 35.9798 22.588 35.0368 23.674 34.4916C24.1563 34.2494 24.4115 34.1741 25.4927 33.955C25.6446 33.9242 25.9399 33.8625 26.1488 33.8179C26.616 33.7182 26.7757 33.7137 26.9017 33.7964ZM11.6174 35.0053C12.6535 36.0134 12.8139 37.6939 12.0146 39.1653C11.5499 40.0207 11.1209 40.4157 9.94635 41.0696C9.55689 41.2865 9.43205 41.3725 9.42356 41.43C9.41641 41.4783 9.47373 41.5886 9.58296 41.7366C9.892 42.1553 9.90833 42.2582 9.69474 42.4402C9.34496 42.7384 7.59271 43.6636 7.45834 43.6212C7.31119 43.5747 6.84444 42.8767 6.77572 42.6004C6.75762 42.5276 6.77417 42.4936 6.8644 42.418C6.97608 42.3244 7.53307 42.0472 7.83755 41.9336C7.92778 41.8999 8.00158 41.8625 8.00158 41.8504C8.00158 41.8382 7.95758 41.7804 7.90378 41.7217C7.80795 41.6172 7.80232 41.6158 7.61888 41.6488C7.51597 41.6674 7.08213 41.6835 6.65478 41.6847C5.99696 41.6865 5.82481 41.6759 5.53245 41.6155C4.38978 41.3797 3.64801 40.811 3.23213 39.852C2.88514 39.052 2.86991 38.1566 3.18716 37.2056C3.37454 36.644 3.39909 36.6121 3.91633 36.2597C4.65976 35.7532 4.69084 35.7209 4.94836 35.1889C5.12393 34.8262 5.19555 34.7129 5.28302 34.6598C5.34425 34.6227 5.41808 34.5922 5.44709 34.5921C5.49574 34.592 6.28884 34.9169 6.42465 34.9925C6.47272 35.0193 6.43142 35.0473 6.20858 35.1389C5.60035 35.389 5.10545 35.7266 4.63048 36.2155C4.02653 36.8371 3.7215 37.5329 3.72005 38.2924C3.71932 38.6715 3.75751 38.887 3.87956 39.192C4.02245 39.5492 4.21474 39.8242 4.52681 40.1174C5.1962 40.7465 6.08039 41.0565 7.205 41.0565C8.56447 41.0565 9.8171 40.5878 10.712 39.7443C11.0934 39.3849 11.3144 39.0918 11.5246 38.6667C11.7378 38.2355 11.8101 37.9405 11.811 37.4976C11.8121 36.9663 11.6794 36.5522 11.3715 36.1264C11.2049 35.8959 10.9514 35.6219 10.7671 35.473L10.6492 35.3777L10.764 35.0966C10.8272 34.942 10.9074 34.7487 10.9422 34.667L11.0055 34.5185L11.2043 34.6576C11.3137 34.7342 11.4995 34.8906 11.6174 35.0053ZM25.6135 34.8542C24.3093 35.0196 23.3308 35.6039 22.8856 36.483C22.6963 36.8569 22.636 37.1169 22.6343 37.5664C22.6325 38.0686 22.686 38.2939 22.9202 38.7699C23.1257 39.1876 23.3433 39.4788 23.7127 39.8302C25.0808 41.1317 27.4432 41.5605 29.0557 40.8001C29.8813 40.4107 30.3769 39.8768 30.6208 39.1137C30.7209 38.8006 30.7312 38.163 30.6416 37.8243C30.5605 37.5177 30.2826 36.9592 30.0768 36.6895C29.4182 35.8266 28.3282 35.1845 27.0985 34.9352C26.7455 34.8637 25.9015 34.8176 25.6135 34.8542ZM16.0133 35.7264C16.3837 35.9405 16.7136 36.1339 16.7465 36.1561C16.7989 36.1915 16.7688 36.2219 16.5051 36.4001C15.7236 36.928 15.1608 37.3872 14.9132 37.699C14.4847 38.2387 14.0453 39.0155 13.8715 39.5406C13.7514 39.9037 13.6661 40.3685 13.6656 40.6631C13.665 40.972 13.6483 41.0063 13.4354 41.137C13.3041 41.2176 13.2902 41.2401 13.269 41.4072C13.2304 41.7112 13.1872 41.8106 13.0839 41.8333C12.8642 41.8816 12.7264 41.9367 12.3442 42.1295C11.9697 42.3184 11.9127 42.3609 11.6018 42.6829C10.6901 43.6269 10.7009 43.6194 10.4954 43.4473C10.196 43.1964 10.1091 43.2252 8.71666 44.0353L7.91659 44.5007L7.8382 44.41C7.72504 44.279 7.73982 44.2005 7.89926 44.0855C7.97596 44.0302 8.60142 43.703 9.28922 43.3584C10.7184 42.6424 11.006 42.4839 11.006 42.4121C11.006 42.3839 10.9688 42.2879 10.9234 42.1986C10.6671 41.6951 10.5761 41.3267 10.672 41.1809C10.7341 41.0866 11.4585 40.634 11.8072 40.4716C12.0475 40.3597 12.2064 40.3475 12.2498 40.4376C12.2635 40.4659 12.2961 40.5588 12.3223 40.6439C12.4257 40.9792 12.4937 40.7527 12.5939 39.7396C12.6332 39.342 12.6951 38.8812 12.7314 38.7157C13.0261 37.3712 13.804 36.2227 14.9773 35.4C15.1747 35.2617 15.2047 35.2505 15.2686 35.2914C15.3078 35.3166 15.6429 35.5123 16.0133 35.7264ZM15.0058 35.7818C14.7138 35.9771 14.0598 36.6518 13.7738 37.0527C13.4728 37.4746 13.1674 38.1051 13.0607 38.525C12.9881 38.8105 12.9749 38.9393 12.9778 39.333C12.9797 39.5906 12.9923 39.8401 13.0057 39.8874C13.0334 39.9846 13.0357 39.9794 13.25 39.3372C13.4019 38.8821 13.6963 38.2828 13.9662 37.879C14.3684 37.2775 15.1056 36.5788 15.7457 36.1926C15.8928 36.1037 16.0133 36.0257 16.0133 36.0191C16.0133 35.9999 15.2981 35.6234 15.2657 35.6255C15.2495 35.6266 15.1326 35.6969 15.0058 35.7818ZM10.2808 37.2906C10.7573 37.398 11.3732 37.6779 11.4671 37.8297C11.549 37.9621 11.2378 38.6848 10.924 39.0909C10.0107 40.2727 8.16119 40.9718 6.58572 40.7308C6.0241 40.6449 5.53798 40.4798 5.17538 40.2519C5.03966 40.1666 5.03176 40.1526 5.03224 39.9987C5.03331 39.656 5.19603 39.199 5.42699 38.8902C5.7133 38.5074 6.29253 38.0414 6.79782 37.7874C7.26744 37.5514 7.79932 37.3795 8.39871 37.2703C8.84412 37.1891 9.88022 37.2003 10.2808 37.2906ZM25.7413 37.3272C26.618 37.4415 27.3953 37.7185 28.0812 38.1611C28.2149 38.2474 28.4804 38.4738 28.6712 38.6643C28.9608 38.9533 29.0416 39.0588 29.1606 39.3028C29.3226 39.6349 29.3886 39.8971 29.3719 40.1421C29.3605 40.3091 29.3584 40.3119 29.1532 40.4255C27.8266 41.1597 25.8636 40.9935 24.4218 40.0247C23.7144 39.5494 23.1693 38.8327 22.9917 38.1443L22.9278 37.8969L23.0534 37.8105C23.2244 37.6929 23.6525 37.5011 23.9039 37.4294C24.4227 37.2816 25.1017 37.2438 25.7413 37.3272Z" fill="url(#paint1_linear_161_48)"/>
<path d="M19.4125 12.3064C19.4125 13.4101 18.5127 14.3122 17.3937 14.3122C16.2748 14.3122 15.375 13.4101 15.375 12.3064C15.375 11.2026 16.2748 10.3005 17.3937 10.3005C18.5127 10.3005 19.4125 11.2026 19.4125 12.3064Z" stroke="url(#paint2_linear_161_48)" stroke-width="2"/>
<path d="M20.925 12.3064C20.925 14.2387 19.3501 15.8161 17.3938 15.8161C15.4375 15.8161 13.8625 14.2387 13.8625 12.3064C13.8625 10.374 15.4375 8.79663 17.3938 8.79663C19.3501 8.79663 20.925 10.374 20.925 12.3064Z" stroke="#030C50" stroke-width="3"/>
<defs>
<linearGradient id="paint0_linear_161_48" x1="45.9999" y1="-0.289667" x2="70.4373" y2="-0.289667" gradientUnits="userSpaceOnUse">
<stop stop-color="#030C5C"/>
<stop offset="1" stop-color="#787879" stop-opacity="0.8"/>
</linearGradient>
<linearGradient id="paint1_linear_161_48" x1="41.1123" y1="33.3472" x2="8.68672e-08" y2="33.3472" gradientUnits="userSpaceOnUse">
<stop offset="0.496" stop-color="#0E165F" stop-opacity="0.9636"/>
<stop offset="0.9999" stop-color="#030C5C"/>
<stop offset="1" stop-color="#787879" stop-opacity="0.8"/>
</linearGradient>
<linearGradient id="paint2_linear_161_48" x1="21.5625" y1="11.4476" x2="13.516" y2="13.3235" gradientUnits="userSpaceOnUse">
<stop stop-color="#030C50"/>
<stop offset="0.9999" stop-color="#131B56" stop-opacity="0.9718"/>
<stop offset="1" stop-color="#787879" stop-opacity="0.8"/>
</linearGradient>
</defs>
</svg>
