<svg width="25" height="24" viewBox="0 0 25 24" fill="none" xmlns="http://www.w3.org/2000/svg">
<path d="M22.4999 16.92V19.92C22.5011 20.1985 22.444 20.4741 22.3324 20.7293C22.2209 20.9845 22.0572 21.2136 21.852 21.4018C21.6468 21.5901 21.4045 21.7335 21.1407 21.8227C20.8769 21.9119 20.5973 21.945 20.3199 21.92C17.2428 21.5856 14.2869 20.5341 11.6899 18.85C9.27376 17.3146 7.22527 15.2661 5.68993 12.85C3.99991 10.2412 2.94818 7.27097 2.61993 4.17997C2.59494 3.90344 2.62781 3.62474 2.71643 3.3616C2.80506 3.09846 2.9475 2.85666 3.1347 2.6516C3.32189 2.44653 3.54974 2.28268 3.80372 2.1705C4.05771 2.05831 4.33227 2.00024 4.60993 1.99997H7.60993C8.09524 1.9952 8.56572 2.16705 8.93369 2.48351C9.30166 2.79996 9.54201 3.23942 9.60993 3.71997C9.73656 4.68004 9.97138 5.6227 10.3099 6.52997C10.4445 6.8879 10.4736 7.27689 10.3938 7.65086C10.3141 8.02482 10.1288 8.36809 9.85993 8.63998L8.58993 9.90997C10.0135 12.4135 12.0864 14.4864 14.5899 15.91L15.8599 14.64C16.1318 14.3711 16.4751 14.1858 16.8491 14.1061C17.223 14.0263 17.612 14.0554 17.9699 14.19C18.8772 14.5285 19.8199 14.7634 20.7799 14.89C21.2657 14.9585 21.7093 15.2032 22.0265 15.5775C22.3436 15.9518 22.5121 16.4296 22.4999 16.92Z" stroke="#030C50" stroke-width="2" stroke-linecap="round" stroke-linejoin="round"/>
</svg>
